<svg width="27" height="20" viewBox="0 0 27 20" fill="none" xmlns="http://www.w3.org/2000/svg">
<path d="M23.0175 0.828369H3.85286C1.77213 0.828369 0.0883789 2.51246 0.0883789 4.59362V15.5471C0.0883789 17.6282 1.77213 19.3123 3.85286 19.3123H23.0175C25.0982 19.3123 26.782 17.6282 26.782 15.5471V4.59362C26.782 2.51246 25.0982 0.828369 23.0175 0.828369ZM24.7286 15.5471C24.7286 16.4918 23.962 17.2586 23.0175 17.2586H3.85286C2.90832 17.2586 2.14173 16.4918 2.14173 15.5471V4.59362C2.14173 3.64888 2.90832 2.88214 3.85286 2.88214H23.0175C23.962 2.88214 24.7286 3.64888 24.7286 4.59362V15.5471Z" fill="#231F20"/>
<path d="M7.95955 4.93604C5.87882 4.93604 4.19507 6.62013 4.19507 8.70129C4.19507 10.7824 5.87882 12.4665 7.95955 12.4665C10.0403 12.4665 11.724 10.7824 11.724 8.70129C11.724 6.62013 10.0403 4.93604 7.95955 4.93604ZM7.95955 10.4128C7.01501 10.4128 6.24842 9.64602 6.24842 8.70129C6.24842 7.75655 7.01501 6.98981 7.95955 6.98981C8.90409 6.98981 9.67068 7.75655 9.67068 8.70129C9.67068 9.64602 8.90409 10.4128 7.95955 10.4128Z" fill="#231F20"/>
<path d="M21.6486 13.1509H20.2797C19.7185 13.1509 19.2531 13.6164 19.2531 14.1778C19.2531 14.7391 19.7185 15.2047 20.2797 15.2047H21.6486C22.2099 15.2047 22.6753 14.7391 22.6753 14.1778C22.6753 13.6164 22.2236 13.1509 21.6486 13.1509Z" fill="#231F20"/>
<path d="M16.173 13.1509H14.8041C14.2429 13.1509 13.7775 13.6164 13.7775 14.1778C13.7775 14.7391 14.2429 15.2047 14.8041 15.2047H16.173C16.7343 15.2047 17.1997 14.7391 17.1997 14.1778C17.1997 13.6164 16.748 13.1509 16.173 13.1509Z" fill="#231F20"/>
</svg>
