<svg width="28" height="24" viewBox="0 0 28 24" fill="none" xmlns="http://www.w3.org/2000/svg">
<path d="M22.3188 -0.00146484H6.0015C3.19525 -0.00146484 0.90918 2.28507 0.90918 5.09189V14.6077C0.90918 17.4145 3.19525 19.7011 6.0015 19.7011H10.4641C10.4504 19.7421 10.4641 19.7832 10.4504 19.8243C10.2725 20.6458 9.91656 21.2893 9.58802 21.7411H8.7256C8.16435 21.7411 7.71263 22.193 7.71263 22.7543C7.71263 23.3157 8.16435 23.7675 8.7256 23.7675H10.0808H18.2395H19.5947C20.1559 23.7675 20.6077 23.3157 20.6077 22.7543C20.6077 22.193 20.1559 21.7411 19.5947 21.7411H18.7323C18.4037 21.2756 18.0478 20.6458 17.8699 19.8243C17.8562 19.7832 17.8699 19.7421 17.8562 19.7011H22.3188C25.1251 19.7011 27.4111 17.4145 27.4111 14.6077V5.10559C27.4111 2.28507 25.1251 -0.00146484 22.3188 -0.00146484ZM15.885 20.2898C15.9945 20.7964 16.1724 21.2893 16.3915 21.7685H11.9425C12.1616 21.2893 12.3258 20.7964 12.449 20.2898C12.4901 20.0981 12.5175 19.9201 12.5449 19.7285H15.7891C15.8028 19.9064 15.8439 20.0981 15.885 20.2898ZM25.3715 14.6214C25.3715 16.3055 24.0026 17.6747 22.3188 17.6747H16.7337H11.5866H6.0015C4.31775 17.6747 2.94883 16.3055 2.94883 14.6214V5.10559C2.94883 3.42149 4.31775 2.05231 6.0015 2.05231H22.3188C24.0026 2.05231 25.3715 3.42149 25.3715 5.10559V14.6214Z" fill="#231F20"/>
<path d="M18.2394 13.6082H10.0807C9.51949 13.6082 9.06775 14.06 9.06775 14.6213C9.06775 15.1827 9.51949 15.6345 10.0807 15.6345H18.2394C18.8006 15.6345 19.2524 15.1827 19.2524 14.6213C19.2524 14.06 18.8006 13.6082 18.2394 13.6082Z" fill="#231F20"/>
</svg>
