<svg width="25" height="27" viewBox="0 0 25 27" fill="none" xmlns="http://www.w3.org/2000/svg">
<path d="M22.3103 6.56672H17.9435L18.9976 5.51245C19.8189 4.69094 20.1201 3.54083 19.8053 2.43179C19.4904 1.32275 18.6417 0.487547 17.5192 0.200019C15.986 -0.183352 14.3981 0.638159 13.8095 2.08949L12.7143 4.81417L11.6192 2.08949C11.0306 0.624467 9.44265 -0.197044 7.90948 0.200019C6.78698 0.487547 5.93826 1.30906 5.62342 2.43179C5.30857 3.55452 5.62342 4.70463 6.43107 5.51245L7.5125 6.56672H3.1457C1.83156 6.56672 0.750122 7.64837 0.750122 8.96279V10.332C0.750122 11.2904 1.31137 12.0982 2.11902 12.4816V22.6546C2.11902 24.7358 3.80278 26.4199 5.88351 26.4199H9.99022H15.4658H19.5725C21.6533 26.4199 23.337 24.7358 23.337 22.6546V12.4816C24.1447 12.0982 24.7059 11.2767 24.7059 10.332V8.96279C24.7059 7.64837 23.6382 6.56672 22.3103 6.56672ZM22.6526 8.96279V10.332C22.6526 10.5237 22.502 10.6743 22.3103 10.6743H16.4925V8.62049H22.3103C22.502 8.62049 22.6526 8.7711 22.6526 8.96279ZM11.0169 8.62049H14.4392V10.6743H11.0169V8.62049ZM15.7259 2.85624C15.9313 2.33595 16.4925 2.04842 17.0264 2.18533C17.5876 2.32225 17.7793 2.77408 17.834 2.96577C17.8888 3.15745 17.9572 3.63667 17.5466 4.04742L15.0415 6.56672H14.2475L15.7259 2.85624ZM7.6357 2.97946C7.69046 2.78778 7.86842 2.33595 8.44336 2.19903C8.99092 2.06211 9.53848 2.34964 9.74381 2.86993L11.2222 6.56672H10.4283L7.92317 4.06111C7.49881 3.65036 7.58095 3.17115 7.6357 2.97946ZM2.80348 8.96279C2.80348 8.7711 2.95406 8.62049 3.1457 8.62049H8.96354V10.6743H3.1457C2.95406 10.6743 2.80348 10.5237 2.80348 10.332V8.96279ZM4.17238 22.6546V12.728H8.96354V24.3661H5.88351C4.93896 24.3661 4.17238 23.5993 4.17238 22.6546ZM11.0169 24.3661V12.728H14.5076C14.4665 12.8376 14.4392 12.9471 14.4392 13.0703V24.3661H11.0169ZM21.2837 22.6546C21.2837 23.5993 20.5171 24.3661 19.5725 24.3661H16.4925V13.0703C16.4925 12.9471 16.4651 12.8376 16.4241 12.728H21.2837V22.6546Z" fill="#231F20"/>
</svg>
