<svg width="27" height="27" viewBox="0 0 27 27" fill="none" xmlns="http://www.w3.org/2000/svg">
<path d="M26.6726 17.6077C26.5357 16.8409 26.303 16.0879 25.9471 15.4033L23.7979 11.1588C22.648 8.88599 20.4989 7.3662 18.0211 6.96914L19.2942 3.14912C19.5406 2.42345 19.4174 1.61564 18.9657 0.985811C18.514 0.369679 17.7884 0 17.0218 0H9.86248C9.0959 0 8.37037 0.369679 7.91864 0.999503C7.4669 1.62933 7.3437 2.42345 7.5901 3.16281L8.86318 6.96914C6.38547 7.3662 4.23629 8.89968 3.08641 11.1588L0.937235 15.4033C0.58132 16.1016 0.334919 16.8409 0.211718 17.6077C-0.171575 19.8531 0.458118 22.1397 1.93653 23.8922C3.44233 25.6722 5.65995 26.6991 8.01446 26.6991H18.8835C21.2381 26.6991 23.4557 25.6722 24.9615 23.8922C26.4262 22.1397 27.0559 19.8531 26.6726 17.6077ZM9.5887 2.19069C9.62977 2.13592 9.7119 2.05377 9.86248 2.05377H17.0218C17.1724 2.05377 17.2546 2.13592 17.2956 2.19069C17.3367 2.24546 17.3914 2.35499 17.3367 2.5056L15.8993 6.84591H10.985L9.53394 2.5056C9.49288 2.35499 9.54763 2.24546 9.5887 2.19069ZM23.3872 22.5641C22.2647 23.8922 20.6221 24.6453 18.8699 24.6453H8.00077C6.24858 24.6453 4.6059 23.8922 3.48339 22.5641C2.40196 21.2771 1.93653 19.593 2.21031 17.95C2.30614 17.3886 2.48409 16.8409 2.74419 16.3207L4.92074 12.0899C5.92004 10.1183 7.93233 8.89968 10.1636 8.89968H16.7207C18.952 8.89968 20.9643 10.1183 21.9636 12.0899L24.1128 16.3343C24.3728 16.8409 24.5508 17.3886 24.6466 17.9637C24.9341 19.593 24.4687 21.2771 23.3872 22.5641Z" fill="#231F20"/>
</svg>
