<svg width="27" height="23" viewBox="0 0 27 23" fill="none" xmlns="http://www.w3.org/2000/svg">
<path d="M21.8437 4.07858H16.7514L19.7493 1.83312C20.201 1.49083 20.2968 0.861005 19.9546 0.409175C19.6261 -0.0426549 18.9827 -0.138498 18.531 0.203798L13.6987 3.81844L8.86647 0.203798C8.41473 -0.138498 7.77138 -0.0426549 7.44284 0.409175C7.10061 0.861005 7.19643 1.50452 7.64817 1.83312L10.6461 4.07858H5.55375C2.7475 4.07858 0.461426 6.36512 0.461426 9.17194V17.3323C0.461426 20.1391 2.7475 22.4256 5.55375 22.4256H21.871C24.6773 22.4256 26.9634 20.1391 26.9634 17.3323V9.18563C26.9497 6.36512 24.6636 4.07858 21.8437 4.07858ZM2.47371 17.346V9.18563C2.47371 7.50154 3.84263 6.13236 5.52638 6.13236H16.7377V20.4129H5.52638C3.84263 20.3992 2.47371 19.0301 2.47371 17.346ZM24.91 17.346C24.91 19.0301 23.5411 20.3992 21.8574 20.3992H18.8047V6.11866H21.8574C23.5411 6.11866 24.91 7.48785 24.91 9.17194V17.346Z" fill="#231F20"/>
<path d="M21.8709 8.15869C21.296 8.15869 20.8442 8.61052 20.8442 9.17189C20.8442 9.73325 21.3097 10.1851 21.8709 10.1851C22.4322 10.1851 22.8839 9.73325 22.8839 9.17189C22.8976 8.62421 22.4322 8.15869 21.8709 8.15869Z" fill="#231F20"/>
<path d="M21.8709 12.239C21.296 12.239 20.8442 12.6908 20.8442 13.2522C20.8442 13.8136 21.3097 14.2654 21.8709 14.2654C22.4322 14.2654 22.8839 13.8136 22.8839 13.2522C22.8839 12.6908 22.4322 12.239 21.8709 12.239Z" fill="#231F20"/>
<path d="M21.8709 16.3191C21.296 16.3191 20.8442 16.7709 20.8442 17.3323C20.8442 17.8937 21.3097 18.3455 21.8709 18.3455C22.4322 18.3455 22.8839 17.8937 22.8839 17.3323C22.8976 16.7846 22.4322 16.3191 21.8709 16.3191Z" fill="#231F20"/>
</svg>
