<svg width="25" height="27" viewBox="0 0 25 27" fill="none" xmlns="http://www.w3.org/2000/svg">
<path d="M24.011 7.03756C23.9015 5.92852 23.0528 5.03856 21.9576 4.88795C20.5614 4.69626 19.2061 4.28551 17.9331 3.68307C16.3999 2.9574 15.0173 1.9579 13.799 0.71194C12.9092 -0.205412 11.376 -0.205412 10.4862 0.71194C9.26791 1.9579 7.88531 2.9574 6.35214 3.68307C5.07906 4.28551 3.72385 4.69626 2.32757 4.88795C1.23245 5.03856 0.383728 5.92852 0.274216 7.03756C-0.0132541 9.817 -0.136461 16.8683 4.69577 22.1533C6.51641 24.1387 8.7751 25.6037 11.4034 26.5073C11.6498 26.5895 11.8962 26.6306 12.1426 26.6306C12.389 26.6306 12.6354 26.5895 12.8818 26.5073C15.5101 25.6037 17.7688 24.1387 19.5894 22.1533C24.4217 16.8683 24.2985 9.83069 24.011 7.03756ZM18.07 20.7705C16.482 22.5093 14.5108 23.7827 12.0742 24.5768C9.77439 23.7827 7.80318 22.5093 6.21525 20.7705C1.94427 16.1015 2.06748 9.76224 2.31388 7.25663C2.32757 7.07864 2.45077 6.95541 2.60135 6.92803C4.20296 6.70896 5.76351 6.24344 7.22823 5.54515C8.98043 4.70995 10.5684 3.57353 11.9373 2.14958C11.992 2.09481 12.0605 2.06743 12.1289 2.06743C12.1974 2.06743 12.2658 2.09481 12.3206 2.14958C13.7031 3.57353 15.2911 4.70995 17.0433 5.54515C18.508 6.24344 20.0685 6.70896 21.6702 6.92803C21.8344 6.95541 21.9439 7.07864 21.9576 7.25663C22.2177 9.76224 22.3546 16.1015 18.07 20.7705Z" fill="#231F20"/>
<path d="M15.428 9.99511L12.0331 14.5271L10.1304 12.6239C9.73338 12.2269 9.07631 12.2269 8.67933 12.6239C8.28235 13.021 8.28235 13.6782 8.67933 14.0753L11.4171 16.8136C11.6088 17.0053 11.8689 17.1149 12.1427 17.1149C12.17 17.1149 12.1974 17.1149 12.2111 17.1149C12.5122 17.0875 12.786 16.9506 12.964 16.7041L17.0707 11.2274C17.4129 10.7755 17.3171 10.132 16.8654 9.78974C16.4136 9.44744 15.7702 9.54328 15.428 9.99511Z" fill="#231F20"/>
</svg>
