<svg width="28" height="23" viewBox="0 0 28 23" fill="none" xmlns="http://www.w3.org/2000/svg">
<path d="M5.51461 3.84595H2.77681C1.46266 3.84595 0.381226 4.9276 0.381226 6.24202V19.9338C0.381226 21.2483 1.46266 22.3299 2.77681 22.3299H5.51461C6.82876 22.3299 7.91019 21.2483 7.91019 19.9338V6.24202C7.91019 4.9276 6.84245 3.84595 5.51461 3.84595ZM5.85684 19.9338C5.85684 20.1255 5.70626 20.2761 5.51461 20.2761H2.77681C2.58516 20.2761 2.43458 20.1255 2.43458 19.9338V6.24202C2.43458 6.05033 2.58516 5.89972 2.77681 5.89972H5.51461C5.70626 5.89972 5.85684 6.05033 5.85684 6.24202V19.9338Z" fill="#231F20"/>
<path d="M15.0969 9.32275H12.3591C11.0449 9.32275 9.9635 10.4044 9.9635 11.7188V19.9339C9.9635 21.2483 11.0449 22.33 12.3591 22.33H15.0969C16.411 22.33 17.4925 21.2483 17.4925 19.9339V11.7188C17.4925 10.4044 16.4247 9.32275 15.0969 9.32275ZM15.4391 19.9339C15.4391 20.1256 15.2885 20.2762 15.0969 20.2762H12.3591C12.1674 20.2762 12.0169 20.1256 12.0169 19.9339V11.7188C12.0169 11.5271 12.1674 11.3765 12.3591 11.3765H15.0969C15.2885 11.3765 15.4391 11.5271 15.4391 11.7188V19.9339Z" fill="#231F20"/>
<path d="M24.6793 14.7993H21.9415C20.6273 14.7993 19.5459 15.881 19.5459 17.1954V19.9338C19.5459 21.2482 20.6273 22.3298 21.9415 22.3298H24.6793C25.9934 22.3298 27.0749 21.2482 27.0749 19.9338V17.1954C27.0749 15.881 26.0071 14.7993 24.6793 14.7993ZM25.0215 19.9338C25.0215 20.1254 24.8709 20.276 24.6793 20.276H21.9415C21.7498 20.276 21.5993 20.1254 21.5993 19.9338V17.1954C21.5993 17.0037 21.7498 16.8531 21.9415 16.8531H24.6793C24.8709 16.8531 25.0215 17.0037 25.0215 17.1954V19.9338Z" fill="#231F20"/>
<path d="M23.5431 7.24146C23.5978 7.22777 23.6526 7.18669 23.7073 7.173C23.7484 7.15931 23.8032 7.13192 23.8442 7.10454C24.1043 6.95393 24.2823 6.69378 24.3233 6.40626C24.337 6.28303 24.337 6.1735 24.3097 6.05027C24.3097 6.03658 24.3097 6.02289 24.3097 6.00919L23.4199 2.24394C23.283 1.69627 22.7354 1.35397 22.1878 1.4772C21.6403 1.60043 21.2981 2.16179 21.4213 2.70946L21.7361 4.06495L16.8628 1.03906C16.3837 0.737842 15.754 0.888452 15.4528 1.36767C15.1517 1.84688 15.3023 2.4767 15.7814 2.77792L20.6547 5.80382L19.3132 6.11873C18.7656 6.24195 18.4234 6.80332 18.5466 7.35099C18.6561 7.83021 19.0804 8.14512 19.5459 8.14512C19.628 8.14512 19.6964 8.13143 19.7786 8.11773L23.5431 7.24146Z" fill="#231F20"/>
</svg>
