<svg width="19" height="28" viewBox="0 0 19 28" fill="none" xmlns="http://www.w3.org/2000/svg">
<path d="M13.3849 0.656738C13.3712 0.656738 13.3575 0.656738 13.3438 0.656738C13.3301 0.656738 13.3164 0.656738 13.2891 0.656738H5.13041C5.11672 0.656738 5.10303 0.656738 5.08934 0.656738C5.07565 0.656738 5.06196 0.656738 5.04828 0.656738C2.28309 0.711506 0.0380859 2.97066 0.0380859 5.7501V22.0708C0.0380859 24.8776 2.32416 27.1641 5.13041 27.1641H13.2891C16.0953 27.1641 18.3814 24.8776 18.3814 22.0708V5.7364C18.3951 2.95696 16.1638 0.697814 13.3849 0.656738ZM11.6464 2.68313L11.4 3.17603C11.3452 3.28557 11.222 3.36772 11.0988 3.36772H7.33432C7.19743 3.36772 7.08796 3.29926 7.0332 3.17603L6.78677 2.68313H11.6464ZM16.3554 22.0571C16.3554 23.7412 14.9865 25.1103 13.3028 25.1103H5.14411C3.46036 25.1103 2.09144 23.7412 2.09144 22.0571V5.7364C2.09144 4.25769 3.14548 3.01173 4.55545 2.7379L5.22624 4.07969C5.63691 4.88751 6.44455 5.39411 7.34802 5.39411H11.1125C12.016 5.39411 12.8373 4.88751 13.2343 4.07969L13.9051 2.7379C15.3014 3.01173 16.3691 4.25769 16.3691 5.7364V22.0571H16.3554Z" fill="#231F20"/>
</svg>
