<svg width="28" height="28" viewBox="0 0 28 28" fill="none" xmlns="http://www.w3.org/2000/svg">
<path d="M14.1427 0.720703C10.3235 0.720703 6.72325 2.4048 4.21816 5.18424V3.11677C4.21816 2.55541 3.75273 2.08989 3.19148 2.08989C2.63023 2.08989 2.1648 2.55541 2.1648 3.11677V8.5935C2.1648 9.15487 2.63023 9.62039 3.19148 9.62039H7.29819C7.85944 9.62039 8.32486 9.15487 8.32486 8.5935C8.32486 8.03214 7.87313 7.56662 7.29819 7.56662H4.94367C7.05178 4.59549 10.4877 2.77448 14.1427 2.77448C20.3712 2.77448 25.4361 7.84045 25.4361 14.0702C25.4361 20.3 20.3712 25.366 14.1427 25.366C7.91419 25.366 2.84925 20.3 2.84925 14.0702C2.84925 13.5089 2.38383 13.0433 1.82258 13.0433C1.26133 13.0433 0.795898 13.5089 0.795898 14.0702C0.795898 21.4364 6.778 27.4198 14.1427 27.4198C21.5074 27.4198 27.4895 21.4364 27.4895 14.0702C27.4895 6.70403 21.5074 0.720703 14.1427 0.720703Z" fill="#231F20"/>
<path d="M14.1426 7.56665C13.5814 7.56665 13.116 8.03217 13.116 8.59354V14.0703C13.116 14.4126 13.2939 14.7275 13.5677 14.9192L17.6744 17.6575C17.8524 17.7807 18.044 17.8355 18.2494 17.8355C18.5779 17.8355 18.9064 17.6712 19.0981 17.3837C19.4129 16.9182 19.2897 16.2747 18.8106 15.9597L15.1556 13.5226V8.59354C15.1693 8.03217 14.7176 7.56665 14.1426 7.56665Z" fill="#231F20"/>
</svg>
