<svg width="27" height="22" viewBox="0 0 27 22" fill="none" xmlns="http://www.w3.org/2000/svg">
<path d="M25.6674 15.3191H25.3252V5.46103C25.3252 2.65421 23.0391 0.367676 20.2329 0.367676H6.63966C3.83341 0.367676 1.54734 2.65421 1.54734 5.46103V15.3191H1.20511C0.643863 15.3191 0.192139 15.771 0.192139 16.3323V17.6878C0.192139 19.7553 1.87586 21.4257 3.92922 21.4257H22.9707C25.0377 21.4257 26.7078 19.7416 26.7078 17.6878V16.3323C26.6804 15.7847 26.2287 15.3191 25.6674 15.3191ZM3.55963 5.46103C3.55963 3.77694 4.92855 2.40776 6.6123 2.40776H20.2055C21.8892 2.40776 23.2582 3.77694 23.2582 5.46103V15.3191H18.0426C17.4129 15.3191 16.8106 15.5656 16.3589 16.0174L15.7976 16.5788C15.7292 16.6473 15.6471 16.6746 15.5512 16.6746H11.2392C11.1433 16.6746 11.0612 16.6336 10.9928 16.5788L10.4315 16.0174C9.97977 15.5656 9.39117 15.3191 8.74778 15.3191H3.53227V5.46103H3.55963ZM24.6407 17.7015C24.6407 18.6326 23.8742 19.3993 22.9433 19.3993H3.90185C2.971 19.3993 2.20443 18.6326 2.20443 17.7015V17.3592H8.77514C8.87097 17.3592 8.95309 17.4003 9.02154 17.4551L9.58279 18.0164C10.0345 18.4683 10.6232 18.7147 11.2666 18.7147H15.5786C16.2083 18.7147 16.8106 18.4683 17.2624 18.0164L17.8236 17.4551C17.8921 17.3866 17.9742 17.3592 18.07 17.3592H24.6407V17.7015Z" fill="#231F20"/>
</svg>
