<svg width="28" height="14" viewBox="0 0 28 14" fill="none" xmlns="http://www.w3.org/2000/svg">
<path d="M23.4323 0.845947H4.26766C2.18692 0.845947 0.503174 2.53004 0.503174 4.6112V10.0879C0.503174 12.1691 2.18692 13.8532 4.26766 13.8532H23.4323C25.513 13.8532 27.1968 12.1691 27.1968 10.0879V4.6112C27.1968 2.53004 25.513 0.845947 23.4323 0.845947ZM25.1434 10.0879C25.1434 11.0327 24.3768 11.7994 23.4323 11.7994H4.26766C3.32311 11.7994 2.55653 11.0327 2.55653 10.0879V4.6112C2.55653 3.66646 3.32311 2.89972 4.26766 2.89972H23.4323C24.3768 2.89972 25.1434 3.66646 25.1434 4.6112V10.0879Z" fill="#231F20"/>
<path d="M15.5475 5.6518C15.1505 5.25474 14.4934 5.25474 14.0964 5.6518L13.85 5.89825L13.6036 5.6518C13.2066 5.25474 12.5496 5.25474 12.1526 5.6518C11.7556 6.04886 11.7556 6.70607 12.1526 7.10313L12.399 7.34959L12.1526 7.59604C11.7556 7.9931 11.7556 8.65031 12.1526 9.04737C12.3579 9.25275 12.618 9.34859 12.8781 9.34859C13.1382 9.34859 13.3983 9.25275 13.6036 9.04737L13.85 8.80092L14.0964 9.04737C14.3018 9.25275 14.5619 9.34859 14.822 9.34859C15.082 9.34859 15.3422 9.25275 15.5475 9.04737C15.9445 8.65031 15.9445 7.9931 15.5475 7.59604L15.3011 7.34959L15.5475 7.10313C15.9445 6.70607 15.9445 6.06256 15.5475 5.6518Z" fill="#231F20"/>
<path d="M22.7889 5.6518C22.3919 5.25474 21.7349 5.25474 21.3379 5.6518L21.0915 5.89825L20.8451 5.6518C20.4481 5.25474 19.791 5.25474 19.394 5.6518C18.9971 6.04886 18.9971 6.70607 19.394 7.10313L19.6404 7.34959L19.394 7.59604C18.9971 7.9931 18.9971 8.65031 19.394 9.04737C19.5994 9.25275 19.8595 9.34859 20.1196 9.34859C20.3797 9.34859 20.6397 9.25275 20.8451 9.04737L21.0915 8.80092L21.3379 9.04737C21.5432 9.25275 21.8033 9.34859 22.0634 9.34859C22.3235 9.34859 22.5836 9.25275 22.7889 9.04737C23.1859 8.65031 23.1859 7.9931 22.7889 7.59604L22.5425 7.34959L22.7889 7.10313C23.1996 6.70607 23.1996 6.06256 22.7889 5.6518Z" fill="#231F20"/>
<path d="M8.30589 5.6518C7.90891 5.25474 7.25184 5.25474 6.85486 5.6518L6.60844 5.89825L6.36205 5.6518C5.96507 5.25474 5.308 5.25474 4.91102 5.6518C4.51404 6.04886 4.51404 6.70607 4.91102 7.10313L5.15741 7.34959L4.91102 7.59604C4.51404 7.9931 4.51404 8.65031 4.91102 9.04737C5.11635 9.25275 5.37644 9.34859 5.63653 9.34859C5.89663 9.34859 6.15672 9.25275 6.36205 9.04737L6.60844 8.80092L6.85486 9.04737C7.06019 9.25275 7.32028 9.34859 7.58037 9.34859C7.84047 9.34859 8.10056 9.25275 8.30589 9.04737C8.70287 8.65031 8.70287 7.9931 8.30589 7.59604L8.0595 7.34959L8.30589 7.10313C8.70287 6.70607 8.70287 6.06256 8.30589 5.6518Z" fill="#231F20"/>
</svg>
