<svg xmlns="http://www.w3.org/2000/svg" width="148" height="24" viewBox="0 0 148 24" fill="none">
  <path d="M11.0489 2.92705C11.3483 2.00574 12.6517 2.00574 12.9511 2.92705L14.4697 7.60081C14.6035 8.01284 14.9875 8.2918 15.4207 8.2918H20.335C21.3037 8.2918 21.7065 9.53141 20.9228 10.1008L16.947 12.9894C16.5966 13.244 16.4499 13.6954 16.5838 14.1074L18.1024 18.7812C18.4017 19.7025 17.3472 20.4686 16.5635 19.8992L12.5878 17.0106C12.2373 16.756 11.7627 16.756 11.4122 17.0106L7.43648 19.8992C6.65276 20.4686 5.59828 19.7025 5.89763 18.7812L7.41623 14.1074C7.55011 13.6954 7.40345 13.244 7.05296 12.9894L3.07722 10.1008C2.29351 9.53141 2.69628 8.2918 3.66501 8.2918H8.57929C9.01252 8.2918 9.39647 8.01284 9.53035 7.60081L11.0489 2.92705Z" fill="#8E54E9"/>
  <path d="M42.0489 2.92705C42.3483 2.00574 43.6517 2.00574 43.9511 2.92705L45.4697 7.60081C45.6035 8.01284 45.9875 8.2918 46.4207 8.2918H51.335C52.3037 8.2918 52.7065 9.53141 51.9228 10.1008L47.947 12.9894C47.5966 13.244 47.4499 13.6954 47.5838 14.1074L49.1024 18.7812C49.4017 19.7025 48.3472 20.4686 47.5635 19.8992L43.5878 17.0106C43.2373 16.756 42.7627 16.756 42.4122 17.0106L38.4365 19.8992C37.6528 20.4686 36.5983 19.7025 36.8976 18.7812L38.4162 14.1074C38.5501 13.6954 38.4034 13.244 38.053 12.9894L34.0772 10.1008C33.2935 9.53141 33.6963 8.2918 34.665 8.2918H39.5793C40.0125 8.2918 40.3965 8.01284 40.5303 7.60081L42.0489 2.92705Z" fill="#8E54E9"/>
  <path d="M73.0489 2.92705C73.3483 2.00574 74.6517 2.00574 74.9511 2.92705L76.4697 7.60081C76.6035 8.01284 76.9875 8.2918 77.4207 8.2918H82.335C83.3037 8.2918 83.7065 9.53141 82.9228 10.1008L78.947 12.9894C78.5966 13.244 78.4499 13.6954 78.5838 14.1074L80.1024 18.7812C80.4017 19.7025 79.3472 20.4686 78.5635 19.8992L74.5878 17.0106C74.2373 16.756 73.7627 16.756 73.4122 17.0106L69.4365 19.8992C68.6528 20.4686 67.5983 19.7025 67.8976 18.7812L69.4162 14.1074C69.5501 13.6954 69.4034 13.244 69.053 12.9894L65.0772 10.1008C64.2935 9.53141 64.6963 8.2918 65.665 8.2918H70.5793C71.0125 8.2918 71.3965 8.01284 71.5303 7.60081L73.0489 2.92705Z" fill="#8E54E9"/>
  <path d="M104.049 2.92705C104.348 2.00574 105.652 2.00574 105.951 2.92705L107.47 7.60081C107.604 8.01284 107.987 8.2918 108.421 8.2918H113.335C114.304 8.2918 114.706 9.53141 113.923 10.1008L109.947 12.9894C109.597 13.244 109.45 13.6954 109.584 14.1074L111.102 18.7812C111.402 19.7025 110.347 20.4686 109.564 19.8992L105.588 17.0106C105.237 16.756 104.763 16.756 104.412 17.0106L100.436 19.8992C99.6528 20.4686 98.5983 19.7025 98.8976 18.7812L100.416 14.1074C100.55 13.6954 100.403 13.244 100.053 12.9894L96.0772 10.1008C95.2935 9.53141 95.6963 8.2918 96.665 8.2918H101.579C102.013 8.2918 102.396 8.01284 102.53 7.60081L104.049 2.92705Z" fill="#8E54E9"/>
  <path d="M135.049 2.92705C135.348 2.00574 136.652 2.00574 136.951 2.92705L138.47 7.60081C138.604 8.01284 138.987 8.2918 139.421 8.2918H144.335C145.304 8.2918 145.706 9.53141 144.923 10.1008L140.947 12.9894C140.597 13.244 140.45 13.6954 140.584 14.1074L142.102 18.7812C142.402 19.7025 141.347 20.4686 140.564 19.8992L136.588 17.0106C136.237 16.756 135.763 16.756 135.412 17.0106L131.436 19.8992C130.653 20.4686 129.598 19.7025 129.898 18.7812L131.416 14.1074C131.55 13.6954 131.403 13.244 131.053 12.9894L127.077 10.1008C126.294 9.53141 126.696 8.2918 127.665 8.2918H132.579C133.013 8.2918 133.396 8.01284 133.53 7.60081L135.049 2.92705Z" fill="#7344BE"/>
</svg>
