<svg width="97" height="50" viewBox="0 0 97 38" fill="none" xmlns="http://www.w3.org/2000/svg">
<path d="M-8.45074 17.6684C-7.79743 15.2394 -5.29159 12.7426 -2.85379 12.0916L12.3446 8.03322C14.7824 7.38227 16.229 8.82369 15.5757 11.2527L11.5027 26.3965C10.8494 28.8256 8.34355 31.3224 5.90574 31.9734L-9.29262 36.0317C-11.7304 36.6827 -13.177 35.2413 -12.5237 32.8122L-8.45074 17.6684Z" fill="#F8F8F8"/>
<path d="M-14.5437 11.5974C-13.8904 9.16835 -11.3845 6.67151 -8.94671 6.02055L6.25167 1.96218C8.68947 1.31122 10.1361 2.75264 9.48279 5.18169L5.40978 20.3255C4.75648 22.7545 2.25064 25.2513 -0.187166 25.9023L-15.3855 29.9607C-17.8234 30.6116 -19.27 29.1702 -18.6167 26.7412L-14.5437 11.5974Z" fill="#D8D8D8"/>
<path d="M29.8822 23.9187H34.8654V26.8447H26.078V11.2837H29.8822V23.9187Z" fill="#F6F6F6"/>
<path d="M35.4786 20.638C35.4786 19.3671 35.7159 18.2514 36.1904 17.2909C36.6799 16.3303 37.3399 15.5914 38.1704 15.0742C39.0009 14.557 39.9279 14.2984 40.9512 14.2984C41.8262 14.2984 42.59 14.4757 43.2426 14.8304C43.91 15.185 44.4217 15.6505 44.7776 16.2269V14.4757H48.5818V26.8447H44.7776V25.0935C44.4068 25.6699 43.8878 26.1354 43.2204 26.49C42.5678 26.8447 41.804 27.022 40.929 27.022C39.9205 27.022 39.0009 26.7634 38.1704 26.2462C37.3399 25.7142 36.6799 24.9679 36.1904 24.0074C35.7159 23.032 35.4786 21.9089 35.4786 20.638ZM44.7776 20.6602C44.7776 19.7144 44.5107 18.9681 43.9767 18.4214C43.4577 17.8746 42.8199 17.6012 42.0635 17.6012C41.3072 17.6012 40.662 17.8746 40.1281 18.4214C39.609 18.9534 39.3495 19.6922 39.3495 20.638C39.3495 21.5838 39.609 22.3375 40.1281 22.899C40.662 23.4458 41.3072 23.7192 42.0635 23.7192C42.8199 23.7192 43.4577 23.4458 43.9767 22.899C44.5107 22.3522 44.7776 21.606 44.7776 20.6602Z" fill="#F6F6F6"/>
<path d="M63.5695 14.4757L55.7832 32.7189H51.6899L54.5374 26.4235L49.4875 14.4757H53.7366L56.6064 22.2119L59.4539 14.4757H63.5695Z" fill="#F6F6F6"/>
<path d="M76.202 20.4607C76.202 20.8154 76.1797 21.1848 76.1352 21.569H67.5258C67.5851 22.3375 67.8298 22.9286 68.2599 23.3424C68.7049 23.7414 69.2462 23.9409 69.8839 23.9409C70.8331 23.9409 71.4931 23.5419 71.8639 22.7439H75.9127C75.7051 23.5566 75.3269 24.2881 74.7782 24.9384C74.2443 25.5886 73.5694 26.0984 72.7537 26.4679C71.938 26.8373 71.0259 27.022 70.0174 27.022C68.8013 27.022 67.7186 26.7634 66.7694 26.2462C65.8202 25.729 65.0787 24.9901 64.5447 24.0295C64.0108 23.069 63.7439 21.9459 63.7439 20.6602C63.7439 19.3745 64.0034 18.2514 64.5225 17.2909C65.0564 16.3303 65.798 15.5914 66.7472 15.0742C67.6963 14.557 68.7864 14.2984 70.0174 14.2984C71.2187 14.2984 72.2866 14.5496 73.2209 15.052C74.1553 15.5545 74.882 16.2712 75.4011 17.2022C75.935 18.1332 76.202 19.2194 76.202 20.4607ZM72.3088 19.4632C72.3088 18.813 72.0863 18.2957 71.6414 17.9115C71.1965 17.5273 70.6403 17.3352 69.9729 17.3352C69.3352 17.3352 68.7938 17.5199 68.3489 17.8894C67.9188 18.2588 67.6519 18.7834 67.548 19.4632H72.3088Z" fill="#F6F6F6"/>
<path d="M81.5681 16.5372C82.013 15.8574 82.5692 15.3254 83.2366 14.9412C83.904 14.5422 84.6455 14.3427 85.4612 14.3427V18.3549H84.4156C83.4664 18.3549 82.7546 18.5617 82.28 18.9755C81.8054 19.3745 81.5681 20.0839 81.5681 21.1035V26.8447H77.7639V14.4757H81.5681V16.5372Z" fill="#F6F6F6"/>
<path d="M91.8846 27.022C90.8019 27.022 89.8379 26.8373 88.9925 26.4679C88.1471 26.0984 87.4797 25.596 86.9903 24.9605C86.5009 24.3103 86.2265 23.5862 86.1672 22.7882H89.9269C89.9714 23.2167 90.1716 23.564 90.5275 23.83C90.8835 24.096 91.321 24.229 91.8401 24.229C92.3147 24.229 92.678 24.1404 92.9302 23.963C93.1971 23.7709 93.3306 23.5271 93.3306 23.2315C93.3306 22.8769 93.1452 22.6182 92.7744 22.4557C92.4037 22.2784 91.803 22.0862 90.9725 21.8794C90.0826 21.6725 89.341 21.4582 88.7478 21.2365C88.1546 21.0001 87.6429 20.638 87.2128 20.1504C86.7827 19.6479 86.5676 18.9755 86.5676 18.1332C86.5676 17.4239 86.7604 16.781 87.146 16.2047C87.5465 15.6136 88.1249 15.1481 88.8813 14.8082C89.6525 14.4683 90.5646 14.2984 91.6176 14.2984C93.1749 14.2984 94.3984 14.6826 95.2883 15.451C96.193 16.2195 96.7121 17.2391 96.8456 18.51H93.3306C93.2713 18.0815 93.0785 17.7416 92.7522 17.4904C92.4407 17.2391 92.0255 17.1135 91.5064 17.1135C91.0614 17.1135 90.7203 17.2022 90.483 17.3795C90.2457 17.5421 90.1271 17.7711 90.1271 18.0667C90.1271 18.4214 90.3125 18.6874 90.6833 18.8647C91.0689 19.042 91.6621 19.2194 92.463 19.3967C93.3825 19.6331 94.1315 19.8696 94.7099 20.106C95.2883 20.3277 95.7925 20.6971 96.2226 21.2144C96.6676 21.7168 96.8975 22.3966 96.9123 23.2537C96.9123 23.9778 96.7047 24.628 96.2894 25.2044C95.889 25.7659 95.3031 26.2092 94.5319 26.5344C93.7755 26.8595 92.8931 27.022 91.8846 27.022Z" fill="#F6F6F6"/>
</svg>
